<?xml version="1.0" encoding="UTF-8" standalone="no"?>
<!-- Created with Inkscape (http://www.inkscape.org/) -->

<svg viewBox="0 0 4850 457" fill="none" xmlns="http://www.w3.org/2000/svg">
 
  <path
     style="font-size:474.855px;font-family:Impact;-inkscape-font-specification:Impact;stroke-width:0.395712"
     d="M 27.578146,45.710565 H 96.67326 q 69.09511,0 93.44071,5.332844 24.57745,5.332845 39.8804,27.359811 15.53481,21.7951 15.53481,69.7907 0,43.82207 -10.89755,58.89315 -10.89756,15.07108 -42.89462,18.0853 28.98285,7.18775 38.95295,19.24461 9.9701,12.05687 12.28873,22.25883 2.55049,9.9701 2.55049,55.41521 v 99.00542 H 154.87082 V 296.35425 q 0,-30.14216 -4.86912,-37.32991 -4.63725,-7.18775 -24.80932,-7.18775 V 421.09644 H 27.578146 Z m 97.614234,64.225995 v 83.47061 q 16.46226,0 22.95442,-4.4054 6.72402,-4.63725 6.72402,-29.44657 v -20.63579 q 0,-17.85344 -6.49216,-23.41814 -6.26029,-5.56471 -23.18628,-5.56471 z M 506.37482,265.5165 q 0,56.57452 -2.78236,80.22453 -2.55049,23.41814 -16.69412,42.89461 -13.91177,19.47648 -37.79363,29.9103 -23.88187,10.43383 -55.64708,10.43383 -30.14216,0 -54.25589,-9.73824 -23.88187,-9.9701 -38.48922,-29.67844 -14.60736,-19.70833 -17.38971,-42.89461 -2.78236,-23.18628 -2.78236,-81.15198 v -64.226 q 0,-56.57452 2.55049,-79.99266 2.78236,-23.650008 16.69412,-43.126483 14.14364,-19.476475 38.0255,-29.910301 23.88187,-10.433826 55.64707,-10.433826 30.14217,0 54.02404,9.9701 24.11373,9.738238 38.72108,29.446576 14.60736,19.708337 17.38971,42.894614 2.78236,23.18628 2.78236,81.15198 z M 408.76058,142.16549 q 0,-26.2005 -3.01422,-33.38824 -2.78235,-7.41961 -11.825,-7.41961 -7.65147,0 -11.825,6.02843 -3.94167,5.79657 -3.94167,34.77942 v 175.28827 q 0,32.69266 2.55049,40.34413 2.78235,7.65147 12.52059,7.65147 9.9701,0 12.75246,-8.81078 2.78235,-8.81079 2.78235,-41.96717 z M 711.3415,45.710565 767.22043,421.09644 h -99.93286 l -4.86912,-67.47208 h -35.01129 l -5.79657,67.47208 H 520.51841 L 570.13705,45.710565 Z M 659.63609,287.07974 Q 652.21648,223.31747 644.79687,129.6449 629.95766,237.22924 626.24785,287.07974 Z M 954.33379,45.710565 v 75.123545 h -57.9657 V 421.09644 H 798.75385 V 120.83411 H 741.02001 V 45.710565 Z m 171.81031,0 55.8789,375.385875 h -99.9328 l -4.8691,-67.47208 h -35.0113 l -5.7966,67.47208 H 935.32103 L 984.93967,45.710565 Z m -51.7054,241.369175 q -7.4196,-63.76227 -14.8392,-157.43484 -14.8392,107.58434 -18.549,157.43484 z M 1416.6682,45.710565 V 421.09644 h -85.5574 l -50.7779,-170.65102 v 170.65102 h -81.6157 V 45.710565 h 81.6157 l 54.7196,169.027985 V 45.710565 Z m 490.1579,0 -43.3583,375.385875 h -121.9599 q -16.6941,-86.48483 -29.4465,-196.61966 -5.7966,47.06815 -27.128,196.61966 H 1563.6692 L 1520.079,45.710565 h 94.8319 l 9.9701,131.002485 10.2019,126.36522 q 5.3329,-98.07796 26.8961,-257.367705 h 101.5559 q 2.0868,16.462259 10.6657,123.814735 l 10.6657,142.59562 q 8.1152,-136.10346 27.1279,-266.410355 z M 2149.3546,265.5165 q 0,56.57452 -2.7823,80.22453 -2.5505,23.41814 -16.6941,42.89461 -13.9118,19.47648 -37.7937,29.9103 -23.8818,10.43383 -55.647,10.43383 -30.1422,0 -54.2559,-9.73824 -23.8819,-9.9701 -38.4893,-29.67844 -14.6073,-19.70833 -17.3897,-42.89461 -2.7823,-23.18628 -2.7823,-81.15198 v -64.226 q 0,-56.57452 2.5505,-79.99266 2.7823,-23.650008 16.6941,-43.126483 14.1436,-19.476475 38.0255,-29.910301 23.8819,-10.433826 55.6471,-10.433826 30.1421,0 54.024,9.9701 24.1137,9.738238 38.7211,29.446576 14.6073,19.708337 17.3897,42.894614 2.7823,23.18628 2.7823,81.15198 z m -97.6142,-123.35101 q 0,-26.2005 -3.0142,-33.38824 -2.7824,-7.41961 -11.825,-7.41961 -7.6515,0 -11.825,6.02843 -3.9417,5.79657 -3.9417,34.77942 v 175.28827 q 0,32.69266 2.5505,40.34413 2.7824,7.65147 12.5206,7.65147 9.9701,0 12.7525,-8.81078 2.7823,-8.81079 2.7823,-41.96717 z M 2403.7081,45.710565 V 421.09644 h -85.5573 l -50.778,-170.65102 v 170.65102 h -81.6157 V 45.710565 h 81.6157 l 54.7196,169.027985 V 45.710565 Z m 39.1847,0 h 73.0368 q 70.7182,0 95.5275,6.492158 25.0412,6.492159 38.0255,21.331378 12.9843,14.839219 16.2304,33.156379 3.2461,18.0853 3.2461,71.41374 v 131.46621 q 0,50.54609 -4.8691,67.70394 -4.6373,16.92598 -16.4623,26.66422 -11.825,9.50637 -29.2147,13.44804 -17.3897,3.70981 -52.401,3.70981 h -123.1192 z m 97.6143,64.225995 v 246.93388 q 21.0995,0 25.9686,-8.34706 4.8691,-8.57892 4.8691,-46.1407 v -145.8417 q 0,-25.50491 -1.623,-32.69265 -1.623,-7.18775 -7.4196,-10.43383 -5.7966,-3.47794 -21.7951,-3.47794 z m 164.8545,-64.225995 h 162.7677 v 75.123545 h -65.1535 v 71.18188 h 60.9799 v 71.41374 h -60.9799 v 82.54316 h 71.6456 v 75.12355 h -169.2598 z m 197.3152,0 h 69.0951 q 69.0951,0 93.4407,5.332844 24.5775,5.332845 39.8804,27.359811 15.5348,21.7951 15.5348,69.7907 0,43.82207 -10.8975,58.89315 -10.8976,15.07108 -42.8947,18.0853 28.9829,7.18775 38.953,19.24461 9.9701,12.05687 12.2887,22.25883 2.5505,9.9701 2.5505,55.41521 v 99.00542 h -90.6583 V 296.35425 q 0,-30.14216 -4.8692,-37.32991 -4.6372,-7.18775 -24.8093,-7.18775 v 169.25985 h -97.6142 z m 97.6142,64.225995 v 83.47061 q 16.4623,0 22.9544,-4.4054 6.7241,-4.63725 6.7241,-29.44657 v -20.63579 q 0,-17.85344 -6.4922,-23.41814 -6.2603,-5.56471 -23.1863,-5.56471 z m 158.1304,-64.225995 h 165.3182 v 75.123545 h -67.704 v 71.18188 h 60.2844 v 71.41374 h -60.2844 v 157.66671 h -97.6142 z m 410.861,0 V 296.58611 q 0,42.66276 -2.7824,60.05247 -2.7823,17.15784 -16.4622,35.47501 -13.6799,18.08529 -36.1706,27.59167 -22.2589,9.27451 -52.6329,9.27451 -33.6201,0 -59.3569,-11.12941 -25.7367,-11.12942 -38.4892,-28.98285 -12.7525,-17.85344 -15.0711,-37.56178 -2.3186,-19.9402 -2.3186,-83.4706 V 45.710565 h 97.6142 V 327.192 q 0,24.57746 2.5505,31.53334 2.7824,6.72402 10.8976,6.72402 9.2745,0 11.825,-7.41961 2.7823,-7.65147 2.7823,-35.70687 V 45.710565 Z m 135.4078,0 V 345.97289 h 59.3569 v 75.12355 H 3607.0759 V 45.710565 Z m 363.3291,0 v 75.123545 h -57.9657 v 300.26233 h -97.6142 V 120.83411 h -57.7338 V 45.710565 Z M 4313.3301,265.5165 q 0,56.57452 -2.7823,80.22453 -2.5505,23.41814 -16.6942,42.89461 -13.9117,19.47648 -37.7936,29.9103 -23.8819,10.43383 -55.6471,10.43383 -30.1421,0 -54.2559,-9.73824 -23.8818,-9.9701 -38.4892,-29.67844 -14.6073,-19.70833 -17.3897,-42.89461 -2.7824,-23.18628 -2.7824,-81.15198 v -64.226 q 0,-56.57452 2.5505,-79.99266 2.7824,-23.650008 16.6942,-43.126483 14.1436,-19.476475 38.0255,-29.910301 23.8818,-10.433826 55.647,-10.433826 30.1422,0 54.0241,9.9701 24.1137,9.738238 38.721,29.446576 14.6074,19.708337 17.3898,42.894614 2.7823,23.18628 2.7823,81.15198 z m -97.6142,-123.35101 q 0,-26.2005 -3.0142,-33.38824 -2.7824,-7.41961 -11.825,-7.41961 -7.6515,0 -11.8251,6.02843 -3.9416,5.79657 -3.9416,34.77942 v 175.28827 q 0,32.69266 2.5505,40.34413 2.7823,7.65147 12.5206,7.65147 9.9701,0 12.7524,-8.81078 2.7824,-8.81079 2.7824,-41.96717 z M 4571.6251,45.710565 V 296.58611 q 0,42.66276 -2.7823,60.05247 -2.7824,17.15784 -16.4623,35.47501 -13.6799,18.08529 -36.1706,27.59167 -22.2588,9.27451 -52.6328,9.27451 -33.6201,0 -59.3569,-11.12941 -25.7368,-11.12942 -38.4892,-28.98285 -12.7525,-17.85344 -15.0711,-37.56178 -2.3186,-19.9402 -2.3186,-83.4706 V 45.710565 h 97.6142 V 327.192 q 0,24.57746 2.5505,31.53334 2.7823,6.72402 10.8975,6.72402 9.2746,0 11.825,-7.41961 2.7824,-7.65147 2.7824,-35.70687 V 45.710565 Z m 37.7939,0 h 69.0951 q 69.0951,0 93.4407,5.332844 24.5774,5.332845 39.8804,27.359811 15.5348,21.7951 15.5348,69.7907 0,43.82207 -10.8976,58.89315 -10.8975,15.07108 -42.8946,18.0853 28.9829,7.18775 38.953,19.24461 9.9701,12.05687 12.2887,22.25883 2.5505,9.9701 2.5505,55.41521 v 99.00542 h -90.6584 V 296.35425 q 0,-30.14216 -4.8691,-37.32991 -4.6372,-7.18775 -24.8093,-7.18775 v 169.25985 h -97.6142 z m 97.6142,64.225995 v 83.47061 q 16.4623,0 22.9544,-4.4054 6.724,-4.63725 6.724,-29.44657 v -20.63579 q 0,-17.85344 -6.4921,-23.41814 -6.2603,-5.56471 -23.1863,-5.56471 z"
     id="text1"
     aria-label="ROATAN WONDERFUL TOUR"
     fill="currentColor"; />
</svg>
